<svg width="23" height="22" viewBox="0 0 23 22" fill="none" xmlns="http://www.w3.org/2000/svg">
    <mask id="mask0_14528_45304" style="mask-type:luminance" maskUnits="userSpaceOnUse" x="0" y="0"
        width="23" height="22">
        <path d="M0 5.30554L17.6582 0L22.5971 16.3557L4.93898 21.6612L0 5.30554Z" fill="white" />
    </mask>
    <g mask="url(#mask0_14528_45304)">
        <mask id="mask1_14528_45304" style="mask-type:luminance" maskUnits="userSpaceOnUse" x="1"
            y="3" width="20" height="19">
            <path
                d="M1.73562 3.93652L20.4653 3.95898L20.4406 21.6024L1.71094 21.5799L1.73562 3.93652Z"
                fill="white" />
        </mask>
        <g mask="url(#mask1_14528_45304)">
            <mask id="mask2_14528_45304" style="mask-type:luminance" maskUnits="userSpaceOnUse"
                x="1" y="3" width="20" height="19">
                <path
                    d="M1.73562 3.93652L20.4653 3.95902L20.4406 21.6024L1.71094 21.5799L1.73562 3.93652Z"
                    fill="white" />
            </mask>
            <g mask="url(#mask2_14528_45304)">
                <path fill-rule="evenodd" clip-rule="evenodd"
                    d="M3.78618 13.1092C8.91223 12.5017 14.8073 15.0993 17.9973 17.1213C14.3489 13.3502 7.87511 11.5054 2.76313 11.9103L3.60188 15.3463L3.78618 13.1092ZM2.75889 8.55052C7.27763 7.8361 15.294 11.8172 19.4334 15.666C17.1116 12.6755 14.0986 10.2788 10.6551 8.68137C10.41 4.15038 18.1135 10.761 19.4278 12.462C19.774 11.7041 19.9712 10.8622 19.9677 9.97878C19.9749 6.67454 17.2655 3.96677 13.9481 3.9611L5.14169 3.94824L5.13699 7.27851C3.9111 7.11614 2.95656 7.24748 1.73438 7.34668L2.5746 10.7876L2.75889 8.55052ZM13.3516 16.6678C11.1614 15.3585 8.02088 14.9244 5.12786 14.9896L5.12674 15.3062L5.12128 21.4456L10.8395 16.6774L13.3516 16.6678Z"
                    fill="#FFFFFF" />
            </g>
        </g>
    </g>
</svg>